<svg width="69" height="60" viewBox="0 0 69 60" fill="none" xmlns="http://www.w3.org/2000/svg">
<path d="M58.1571 59.9058H10.8429C7.96715 59.9058 5.20923 58.7063 3.1758 56.5712C1.14237 54.4361 0 51.5403 0 48.5208V23.6808C0 20.6613 1.14237 17.7655 3.1758 15.6304C5.20923 13.4953 7.96715 12.2958 10.8429 12.2958H13.2086L17.8611 5.0508C18.8566 3.4963 20.2007 2.2226 21.7752 1.34185C23.3497 0.461087 25.1063 0.000281544 26.8903 0H42.1097C43.8937 0.000281544 45.6503 0.461087 47.2248 1.34185C48.7993 2.2226 50.1434 3.4963 51.1389 5.0508L55.7914 12.2958H58.1571C61.0328 12.2958 63.7908 13.4953 65.8242 15.6304C67.8576 17.7655 69 20.6613 69 23.6808V48.5208C69 51.5403 67.8576 54.4361 65.8242 56.5712C63.7908 58.7063 61.0328 59.9058 58.1571 59.9058ZM10.8429 18.5058C9.53572 18.5058 8.28212 19.051 7.35783 20.0215C6.43354 20.992 5.91429 22.3083 5.91429 23.6808V48.5208C5.91429 49.8933 6.43354 51.2096 7.35783 52.1801C8.28212 53.1506 9.53572 53.6958 10.8429 53.6958H58.1571C59.4643 53.6958 60.7179 53.1506 61.6422 52.1801C62.5665 51.2096 63.0857 49.8933 63.0857 48.5208V23.6808C63.0857 22.3083 62.5665 20.992 61.6422 20.0215C60.7179 19.051 59.4643 18.5058 58.1571 18.5058H54.2143C53.7316 18.5049 53.2564 18.3799 52.8303 18.1417C52.4042 17.9036 52.04 17.5595 51.7697 17.1396L46.3286 8.4042C45.8975 7.71318 45.314 7.1416 44.6276 6.73798C43.9411 6.33436 43.1721 6.11064 42.3857 6.0858H26.8903C26.1039 6.11064 25.3349 6.33436 24.6484 6.73798C23.962 7.1416 23.3785 7.71318 22.9474 8.4042L17.2303 17.1396C16.96 17.5595 16.5958 17.9036 16.1697 18.1417C15.7436 18.3799 15.2684 18.5049 14.7857 18.5058H10.8429Z" fill="#D1CFD2"/>
<path d="M34.4999 47.4852C31.9655 47.4852 29.488 46.6961 27.3807 45.2176C25.2734 43.7392 23.6309 41.6378 22.661 39.1792C21.6912 36.7206 21.4374 34.0153 21.9318 31.4053C22.4263 28.7952 23.6467 26.3978 25.4388 24.5161C27.2309 22.6344 29.5142 21.3529 32 20.8337C34.4857 20.3146 37.0622 20.581 39.4037 21.5994C41.7452 22.6178 43.7465 24.3423 45.1546 26.555C46.5626 28.7677 47.3142 31.3691 47.3142 34.0302C47.3038 37.5953 45.9504 41.0113 43.5495 43.5323C41.1486 46.0532 37.8953 47.4743 34.4999 47.4852ZM34.4999 26.7852C33.1352 26.7852 31.8012 27.2101 30.6665 28.0062C29.5318 28.8023 28.6474 29.9338 28.1251 31.2577C27.6029 32.5815 27.4662 34.0382 27.7325 35.4436C27.9987 36.849 28.6559 38.14 29.6209 39.1532C30.5858 40.1664 31.8153 40.8564 33.1538 41.136C34.4922 41.4155 35.8796 41.2721 37.1404 40.7237C38.4012 40.1754 39.4789 39.2467 40.237 38.0553C40.9952 36.8639 41.3999 35.4631 41.3999 34.0302C41.3895 32.1121 40.6593 30.2756 39.3675 28.9192C38.0757 27.5629 36.3267 26.7961 34.4999 26.7852Z" fill="#D1CFD2"/>
</svg>
