<svg width="80" height="80" viewBox="0 0 80 80" fill="none" xmlns="http://www.w3.org/2000/svg">
<path d="M60 14.167H20C17.5688 14.167 15.2373 15.1328 13.5182 16.8518C11.7991 18.5709 10.8333 20.9025 10.8333 23.3337V56.667C10.8333 59.0981 11.7991 61.4297 13.5182 63.1488C15.2373 64.8679 17.5688 65.8337 20 65.8337H60C62.4311 65.8337 64.7627 64.8679 66.4818 63.1488C68.2009 61.4297 69.1666 59.0981 69.1666 56.667V23.3337C69.1666 20.9025 68.2009 18.5709 66.4818 16.8518C64.7627 15.1328 62.4311 14.167 60 14.167ZM20 19.167H60C61.105 19.167 62.1649 19.606 62.9463 20.3874C63.7277 21.1688 64.1666 22.2286 64.1666 23.3337V50.6337L55.1 41.567C54.8629 41.3137 54.5724 41.1164 54.2495 40.9895C53.9265 40.8627 53.5794 40.8094 53.2333 40.8337C52.8832 40.854 52.5407 40.9441 52.2258 41.0987C51.911 41.2532 51.6302 41.4691 51.4 41.7337L47.1 46.9003L31.7666 31.567C31.5407 31.3269 31.2664 31.1374 30.9619 31.011C30.6574 30.8846 30.3295 30.8241 30 30.8337C29.6499 30.854 29.3073 30.9441 28.9925 31.0987C28.6777 31.2532 28.3969 31.4691 28.1666 31.7337L15.8333 46.4337V23.3337C15.8333 22.2286 16.2723 21.1688 17.0537 20.3874C17.8351 19.606 18.8949 19.167 20 19.167ZM15.8333 56.667V54.2337L30.1666 37.0337L43.9 50.767L35.5 60.767H20C18.9064 60.7671 17.8565 60.3373 17.077 59.5703C16.2975 58.8032 15.8508 57.7605 15.8333 56.667ZM60 60.8337H42L53.5 47.0337L64 57.5337C63.8156 58.4604 63.3168 59.295 62.5879 59.8963C61.8591 60.4977 60.9449 60.8288 60 60.8337Z" fill="#D1CFD2"/>
</svg>
