<svg width="18" height="18" viewBox="0 0 18 18" fill="none" xmlns="http://www.w3.org/2000/svg">
<path d="M7.52471 15.4816C6.03647 15.4816 4.58164 15.0277 3.34421 14.1771C2.10678 13.3265 1.14232 12.1176 0.572788 10.7031C0.00326029 9.28866 -0.145754 7.73224 0.144589 6.23067C0.434931 4.72909 1.15159 3.34981 2.20394 2.26724C3.25629 1.18466 4.59706 0.447423 6.05672 0.148741C7.51637 -0.14994 9.02933 0.00335392 10.4043 0.589239C11.7793 1.17512 12.9545 2.16728 13.7813 3.44026C14.6081 4.71323 15.0494 6.20984 15.0494 7.74083C15.0494 8.75737 14.8548 9.76395 14.4766 10.7031C14.0985 11.6423 13.5442 12.4956 12.8455 13.2144C12.1468 13.9332 11.3172 14.5034 10.4043 14.8924C9.49136 15.2814 8.51287 15.4816 7.52471 15.4816ZM7.52471 1.55228C6.33886 1.55228 5.17964 1.91403 4.19363 2.59177C3.20763 3.26952 2.43914 4.23283 1.98533 5.35988C1.53152 6.48693 1.41279 7.72711 1.64414 8.92358C1.87548 10.1201 2.44653 11.2191 3.28505 12.0817C4.12358 12.9443 5.19193 13.5317 6.35499 13.7697C7.51806 14.0077 8.72361 13.8856 9.8192 13.4187C10.9148 12.9519 11.8512 12.1613 12.51 11.147C13.1689 10.1327 13.5205 8.94018 13.5205 7.72027C13.5205 6.08441 12.8888 4.51556 11.7644 3.35884C10.6399 2.20212 9.1149 1.55228 7.52471 1.55228Z" fill="black"/>
<path d="M16.7482 18C16.6497 18.0004 16.5521 17.9807 16.4612 17.9418C16.3702 17.903 16.2877 17.8459 16.2186 17.7738L12.0915 13.5282C11.9591 13.382 11.887 13.1887 11.8904 12.989C11.8938 12.7892 11.9725 12.5986 12.1098 12.4574C12.2471 12.3161 12.4324 12.2352 12.6266 12.2317C12.8207 12.2282 13.0086 12.3023 13.1507 12.4385L17.2778 16.6841C17.4182 16.8287 17.497 17.0246 17.497 17.229C17.497 17.4333 17.4182 17.6292 17.2778 17.7738C17.2086 17.8459 17.1261 17.903 17.0352 17.9418C16.9442 17.9807 16.8467 18.0004 16.7482 18Z" fill="black"/>
</svg>
