<svg width="24" height="24" viewBox="0 0 24 24" fill="none" xmlns="http://www.w3.org/2000/svg">
<path d="M11.9999 9.49991C12.0984 9.49945 12.1961 9.51867 12.2871 9.55645C12.3781 9.59423 12.4607 9.6498 12.5299 9.71991L15.9999 13.2199C16.0913 13.3609 16.1327 13.5284 16.1175 13.6957C16.1023 13.863 16.0314 14.0204 15.9161 14.1426C15.8009 14.2648 15.6479 14.3447 15.4818 14.3696C15.3156 14.3945 15.1459 14.3629 14.9999 14.2799L11.9999 11.2799L8.99991 14.2799C8.85387 14.3629 8.68419 14.3945 8.51805 14.3696C8.35191 14.3447 8.19895 14.2648 8.08367 14.1426C7.96839 14.0204 7.89747 13.863 7.88229 13.6957C7.8671 13.5284 7.90852 13.3609 7.99991 13.2199L11.4999 9.71991C11.6324 9.5855 11.8113 9.5068 11.9999 9.49991Z" fill="black"/>
</svg>
