<svg width="40" height="40" viewBox="0 0 40 40" fill="none" xmlns="http://www.w3.org/2000/svg">
<path d="M31.6667 7.08301H8.33335C7.56116 7.08738 6.82183 7.39608 6.27579 7.94211C5.72976 8.48815 5.42106 9.22748 5.41669 9.99967V29.9997C5.42106 30.7719 5.72976 31.5112 6.27579 32.0572C6.82183 32.6033 7.56116 32.912 8.33335 32.9163H31.6667C32.4389 32.912 33.1782 32.6033 33.7242 32.0572C34.2703 31.5112 34.579 30.7719 34.5834 29.9997V9.99967C34.579 9.22748 34.2703 8.48815 33.7242 7.94211C33.1782 7.39608 32.4389 7.08738 31.6667 7.08301ZM8.33335 9.58301H31.6667C31.7772 9.58301 31.8832 9.62691 31.9613 9.70505C32.0395 9.78319 32.0834 9.88917 32.0834 9.99967V12.5663L20 18.5997L7.91669 12.5663V9.99967C7.91669 9.88917 7.96059 9.78319 8.03873 9.70505C8.11687 9.62691 8.22285 9.58301 8.33335 9.58301ZM31.6667 30.4163H8.33335C8.22285 30.4163 8.11687 30.3724 8.03873 30.2943C7.96059 30.2162 7.91669 30.1102 7.91669 29.9997V15.3497L19.4334 21.1163C19.6093 21.2043 19.8033 21.2502 20 21.2502C20.1967 21.2502 20.3908 21.2043 20.5667 21.1163L32.0834 15.3497V29.9997C32.0834 30.1102 32.0395 30.2162 31.9613 30.2943C31.8832 30.3724 31.7772 30.4163 31.6667 30.4163Z" fill="black"/>
</svg>
