<svg width="20" height="21" viewBox="0 0 20 21" fill="none" xmlns="http://www.w3.org/2000/svg">
<path d="M14.9999 16.8439H4.99992C4.39213 16.8439 3.80924 16.5904 3.37947 16.1391C2.94969 15.6878 2.70825 15.0758 2.70825 14.4376V9.18762C2.70825 8.54944 2.94969 7.9374 3.37947 7.48614C3.80924 7.03488 4.39213 6.78137 4.99992 6.78137H5.49992L6.48325 5.25012C6.69364 4.92157 6.97772 4.65237 7.3105 4.46622C7.64327 4.28007 8.01453 4.18268 8.39158 4.18262H11.6083C11.9853 4.18268 12.3566 4.28007 12.6893 4.46622C13.0221 4.65237 13.3062 4.92157 13.5166 5.25012L14.4999 6.78137H14.9999C15.6077 6.78137 16.1906 7.03488 16.6204 7.48614C17.0501 7.9374 17.2916 8.54944 17.2916 9.18762V14.4376C17.2916 15.0758 17.0501 15.6878 16.6204 16.1391C16.1906 16.5904 15.6077 16.8439 14.9999 16.8439ZM4.99992 8.09387C4.72365 8.09387 4.4587 8.2091 4.26335 8.41422C4.068 8.61934 3.95825 8.89754 3.95825 9.18762V14.4376C3.95825 14.7277 4.068 15.0059 4.26335 15.211C4.4587 15.4161 4.72365 15.5314 4.99992 15.5314H14.9999C15.2762 15.5314 15.5411 15.4161 15.7365 15.211C15.9318 15.0059 16.0416 14.7277 16.0416 14.4376V9.18762C16.0416 8.89754 15.9318 8.61934 15.7365 8.41422C15.5411 8.2091 15.2762 8.09387 14.9999 8.09387H14.1666C14.0646 8.09367 13.9641 8.06725 13.8741 8.01692C13.784 7.96659 13.7071 7.89387 13.6499 7.80512L12.4999 5.95887C12.4088 5.81282 12.2855 5.69201 12.1404 5.60671C11.9953 5.5214 11.8328 5.47412 11.6666 5.46887H8.39158C8.22538 5.47412 8.06284 5.5214 7.91777 5.60671C7.77269 5.69201 7.64936 5.81282 7.55825 5.95887L6.34992 7.80512C6.29278 7.89387 6.21583 7.96659 6.12577 8.01692C6.0357 8.06725 5.93528 8.09367 5.83325 8.09387H4.99992Z" fill="#4F1F67"/>
<path d="M9.99984 14.2188C9.46418 14.2188 8.94055 14.052 8.49517 13.7395C8.04979 13.427 7.70265 12.9829 7.49767 12.4633C7.29268 11.9436 7.23904 11.3718 7.34354 10.8202C7.44805 10.2686 7.70599 9.76187 8.08476 9.36417C8.46353 8.96646 8.9461 8.69562 9.47147 8.58589C9.99683 8.47617 10.5414 8.53248 11.0363 8.74772C11.5312 8.96296 11.9541 9.32745 12.2517 9.7951C12.5493 10.2628 12.7082 10.8126 12.7082 11.375C12.706 12.1285 12.4199 12.8505 11.9125 13.3833C11.4051 13.9161 10.7175 14.2164 9.99984 14.2188ZM9.99984 9.84375C9.71141 9.84375 9.42945 9.93356 9.18963 10.1018C8.94981 10.2701 8.76289 10.5092 8.65251 10.789C8.54214 11.0688 8.51326 11.3767 8.56953 11.6737C8.6258 11.9708 8.76469 12.2436 8.96864 12.4578C9.17259 12.6719 9.43244 12.8177 9.71533 12.8768C9.99822 12.9359 10.2914 12.9056 10.5579 12.7897C10.8244 12.6738 11.0522 12.4775 11.2124 12.2257C11.3726 11.9739 11.4582 11.6779 11.4582 11.375C11.456 10.9696 11.3016 10.5815 11.0286 10.2948C10.7556 10.0081 10.3859 9.84605 9.99984 9.84375Z" fill="#4F1F67"/>
</svg>
