<svg width="40" height="40" viewBox="0 0 40 40" fill="none" xmlns="http://www.w3.org/2000/svg">
<path d="M34.2166 27.0837C34.0666 27.0837 30.7 26.4837 30.7 16.667C30.7 9.73366 26.6666 5.41699 20 5.41699C13.3333 5.41699 9.29998 9.73366 9.29998 16.667C9.29998 26.667 5.81665 27.0837 5.83331 27.0837C5.50179 27.0837 5.18385 27.2154 4.94943 27.4498C4.71501 27.6842 4.58331 28.0021 4.58331 28.3337C4.58331 28.6652 4.71501 28.9831 4.94943 29.2175C5.18385 29.452 5.50179 29.5837 5.83331 29.5837H13.8833C14.1615 31.0015 14.9237 32.2786 16.0394 33.1967C17.1551 34.1147 18.5551 34.6166 20 34.6166C21.4448 34.6166 22.8448 34.1147 23.9606 33.1967C25.0763 32.2786 25.8384 31.0015 26.1166 29.5837H34.1833C34.5148 29.5837 34.8328 29.452 35.0672 29.2175C35.3016 28.9831 35.4333 28.6652 35.4333 28.3337C35.4333 28.0021 35.3016 27.6842 35.0672 27.4498C34.8328 27.2154 34.5148 27.0837 34.1833 27.0837H34.2166ZM20 32.0837C19.2271 32.0822 18.4738 31.8409 17.8439 31.3931C17.214 30.9453 16.7386 30.3131 16.4833 29.5837H23.5166C23.2613 30.3131 22.7859 30.9453 22.156 31.3931C21.5262 31.8409 20.7728 32.0822 20 32.0837ZM9.59998 27.0837C10.8 25.267 11.8 22.0837 11.8 16.667C11.8 11.2503 14.8 7.91699 20 7.91699C25.2 7.91699 28.2 11.1003 28.2 16.667C28.2 22.2337 29.2 25.267 30.4 27.0837H9.59998Z" fill="black"/>
</svg>
