<svg width="24" height="22" viewBox="0 0 24 22" fill="none" xmlns="http://www.w3.org/2000/svg">
<path d="M12.0001 13.2918C11.9016 13.2923 11.8039 13.2746 11.7129 13.24C11.6219 13.2054 11.5393 13.1544 11.4701 13.0902L8.00009 9.88183C7.9087 9.75262 7.86728 9.59902 7.88247 9.44566C7.89765 9.2923 7.96857 9.14805 8.08385 9.03604C8.19913 8.92402 8.3521 8.85073 8.51823 8.82791C8.68437 8.80508 8.85405 8.83405 9.00009 8.91016L12.0001 11.6602L15.0001 8.91016C15.1461 8.83405 15.3158 8.80508 15.482 8.82791C15.6481 8.85073 15.8011 8.92402 15.9163 9.03604C16.0316 9.14805 16.1025 9.2923 16.1177 9.44566C16.1329 9.59902 16.0915 9.75262 16.0001 9.88183L12.5001 13.0902C12.3676 13.2134 12.1887 13.2855 12.0001 13.2918Z" fill="#CECECE"/>
</svg>
